<svg width="689" height="90" xmlns="http://www.w3.org/2000/svg"><g fill="#fff" fill-rule="nonzero"><path d="M161.29 7.68a19.42 19.42 0 00-6.95-4.92A25.69 25.69 0 00144.07.92h-18.32v87.55h17.09c8.2 0 14.163-2.05 17.89-6.15 3.727-4.1 5.593-10.003 5.6-17.71v-4.92c0-4.587-.697-8.253-2.09-11a13.54 13.54 0 00-6.52-6.21 23.57 23.57 0 003.69-2.65 13.83 13.83 0 002.7-3.25 14.24 14.24 0 001.66-4.31 27.82 27.82 0 00.56-6v-3.2a29.36 29.36 0 00-1.17-8.3 18.46 18.46 0 00-3.87-7.09zm-7 59.39a11.58 11.58 0 01-1.36 4.67 7.54 7.54 0 01-3.26 3.08 13.17 13.17 0 01-6 1.1h-5.41v-28h5.53a14.9 14.9 0 015.54.86 7.22 7.22 0 013.26 2.52 9.55 9.55 0 011.53 4.12 39 39 0 01.37 5.78c.02 2.107-.05 4.063-.21 5.87h.01zm-1.91-33.38c-1.433 2.093-4.24 3.137-8.42 3.13h-5.66v-24.1h5.16c4.187 0 7.077.983 8.67 2.95s2.393 4.917 2.4 8.85c-.007 4.02-.727 7.077-2.16 9.17h.01zM190.67.92h-12.54v87.55h37.38V75.92h-24.84zM258.24 5.53a20.79 20.79 0 00-6.76-4 21.84 21.84 0 00-15.12 0 20.73 20.73 0 00-6.77 4 19.26 19.26 0 00-4.85 6.7 22.18 22.18 0 00-1.85 9.34v46.24a22.13 22.13 0 001.85 9.41 19.59 19.59 0 004.85 6.64 20.88 20.88 0 006.77 4 21.84 21.84 0 0015.12 0 20.94 20.94 0 006.76-4 19.75 19.75 0 004.86-6.64 22.28 22.28 0 001.84-9.41V21.57a22.34 22.34 0 00-1.84-9.34 19.41 19.41 0 00-4.86-6.7zm-5.84 62.28c0 3-.84 5.27-2.52 6.7a9.35 9.35 0 01-11.93 0c-1.68-1.43-2.52-3.67-2.52-6.7V21.57c0-3.033.84-5.267 2.52-6.7a9.35 9.35 0 0111.93 0c1.68 1.44 2.52 3.673 2.52 6.7v46.24zM310.63 5.53a20.83 20.83 0 00-6.77-4 21.84 21.84 0 00-15.12 0 20.83 20.83 0 00-6.77 4 19.39 19.39 0 00-4.85 6.7 22.34 22.34 0 00-1.85 9.34v46.24a22.28 22.28 0 001.85 9.41 19.72 19.72 0 004.88 6.64 21 21 0 006.77 4 21.84 21.84 0 0015.12 0 21 21 0 006.77-4 19.86 19.86 0 004.85-6.64 22.28 22.28 0 001.85-9.41V21.57a22.34 22.34 0 00-1.85-9.34 19.52 19.52 0 00-4.88-6.7zm-5.84 62.28c0 3-.85 5.27-2.53 6.7a9.34 9.34 0 01-11.92 0c-1.68-1.43-2.52-3.67-2.52-6.7V21.57c0-3.033.84-5.267 2.52-6.7a9.34 9.34 0 0111.92 0c1.68 1.44 2.53 3.67 2.53 6.7v46.24zM356.8 47.27h-.25L340.44.92h-12.05v87.55h12.55V35.22h.24l12.3 37.63h6.27l12.42-37.63h.25v53.25h12.54V.92h-12.18zM465.38 57.85h-.25L454.93.92h-9.6L435.5 56.5h-.25L428.98.92H415.7l13.03 87.55h11.81l9.47-56.81h.24l9.59 56.81h11.81L484.68.92H471.4zM525.69 5.53a20.79 20.79 0 00-6.76-4 21.87 21.87 0 00-15.13 0 20.79 20.79 0 00-6.76 4 19.41 19.41 0 00-4.86 6.7 22.34 22.34 0 00-1.84 9.34v46.24a22.28 22.28 0 001.84 9.41 19.75 19.75 0 004.82 6.64 20.94 20.94 0 006.76 4 21.87 21.87 0 0015.13 0 20.94 20.94 0 006.76-4 19.75 19.75 0 004.86-6.64 22.28 22.28 0 001.84-9.41V21.57a22.34 22.34 0 00-1.84-9.34 19.41 19.41 0 00-4.82-6.7zm-5.84 62.28c0 3-.84 5.27-2.52 6.7a9.35 9.35 0 01-11.93 0c-1.68-1.43-2.52-3.67-2.52-6.7V21.57c0-3.033.84-5.267 2.52-6.7a9.35 9.35 0 0111.93 0c1.68 1.44 2.52 3.673 2.52 6.7v46.24zM583.36 39.71a32.47 32.47 0 002.4-13.1c0-17.133-7.38-25.697-22.14-25.69h-20.16v87.55H556V51.08h7.5l11.68 37.39h13.28l-13.52-40a18.54 18.54 0 008.42-8.76zm-10.51-7.5a11.21 11.21 0 01-1.42 4.24 6.79 6.79 0 01-3 2.65 12.69 12.69 0 01-5.29.92H556v-27.3h6.52a14.84 14.84 0 015.53.86 7 7 0 013.26 2.64 10.62 10.62 0 011.54 4.31 41.68 41.68 0 01.37 5.84 41.68 41.68 0 01-.37 5.84zM639.49.92h-12.54l-18.32 39.96h-.25V.92h-12.54v87.55h12.54v-26.2l6.77-12.66 14.26 38.86h13.28L622.4 35.96zM688.8 26.12V20a18.46 18.46 0 00-1.47-7.19 20.29 20.29 0 00-4.24-6.33 21.3 21.3 0 00-6.64-4.55A20.83 20.83 0 00667.9.18a22.08 22.08 0 00-9.47 1.9 19.1 19.1 0 00-6.7 5.11 21.8 21.8 0 00-4 7.62 31.89 31.89 0 00-1.35 9.35c0 5.487.923 10.057 2.77 13.71 1.847 3.653 5.463 6.583 10.85 8.79l9 3.69a29.93 29.93 0 013.75 1.84 6.35 6.35 0 012.25 2.22 9.09 9.09 0 011 3.59 54.38 54.38 0 01.24 5.66c0 2-.08 3.77-.24 5.41a10.82 10.82 0 01-1.17 4.12 6.44 6.44 0 01-2.71 2.58 11.08 11.08 0 01-5 .92c-3.2 0-5.473-.92-6.82-2.76a10.22 10.22 0 01-2-6.21v-3.97h-12.53v4.67a20.652 20.652 0 006.14 14.82 20.67 20.67 0 006.77 4.37 22.41 22.41 0 008.48 1.59 23.9 23.9 0 0010.21-2 17.5 17.5 0 006.7-5.35 21.72 21.72 0 003.63-8.12 45.49 45.49 0 001.1-10.27 65.94 65.94 0 00-.49-8.54 21.5 21.5 0 00-1.9-6.64 15.27 15.27 0 00-4-5 23.57 23.57 0 00-6.76-3.75l-9.6-3.82a19.66 19.66 0 01-3.87-2 7.12 7.12 0 01-2.18-2.24 7.69 7.69 0 01-.92-3.07 41.4 41.4 0 01-.19-4.37 24.24 24.24 0 01.37-4.24 10.81 10.81 0 011.29-3.57 7.42 7.42 0 012.58-2.52 8.33 8.33 0 014.25-1c3.19 0 5.47 1 6.82 3.14a13.4 13.4 0 012 7.43v2.83l12.6.02zM48.68.68h40.67V11.4H48.68zM48.68 15.82h40.67v10.72H48.68zM48.68 30.63h40.67v10.72H48.68zM32.32 73.1a8.36 8.36 0 10-.02 16.72 8.36 8.36 0 00.02-16.72zM8.35 73.1a8.36 8.36 0 100 16.72 8.36 8.36 0 000-16.72zM32.32 48.83a8.36 8.36 0 108.35 8.35 8.35 8.35 0 00-8.35-8.35zM8.35 48.83a8.36 8.36 0 108.36 8.35 8.35 8.35 0 00-8.36-8.35zM69.62 47.23c-11.52 0-20.86 9.34-20.86 20.86s9.34 20.86 20.86 20.86 20.86-9.34 20.86-20.86c-.011-11.516-9.344-20.849-20.86-20.86zm0 31a10.9 10.9 0 01-1.14-.07l1.14-10.11L60 71.46a10.18 10.18 0 119.59 6.81l.03-.04zM20.87 0C11.62 0 4.12 7.5 4.12 16.75s16.75 27.31 16.75 27.31S37.62 26 37.62 16.75 30.12 0 20.87 0z"/></g></svg>