<svg id="a3882590-07b7-4bc4-b978-88bacf2b738c" data-name="Layer 1" xmlns="http://www.w3.org/2000/svg" viewBox="0 0 189 24.12">
  <defs>
    <style>
      .e10c222c-8185-4388-8ffb-3a0ca950d1eb {
        fill: #2f9764;
      }
    </style>
  </defs>
  <g id="f95215ba-5957-415e-aec2-aa2660866f96" data-name="Layer 2-2">
    <path class="e10c222c-8185-4388-8ffb-3a0ca950d1eb" d="M43.32,2.06A5.31,5.31,0,0,0,41.46.74,6.88,6.88,0,0,0,38.7.25H33.78V23.76h4.59q3.3,0,4.8-1.65a6.9,6.9,0,0,0,1.51-4.76V16a6.45,6.45,0,0,0-.57-3,3.6,3.6,0,0,0-1.75-1.67,5.92,5.92,0,0,0,1-.71,3.65,3.65,0,0,0,1.17-2,7.92,7.92,0,0,0,.16-1.61V6.2A8,8,0,0,0,44.36,4,5,5,0,0,0,43.32,2.06ZM41.44,18a3.1,3.1,0,0,1-.36,1.26,2.07,2.07,0,0,1-.88.83,3.57,3.57,0,0,1-1.61.29H37.14V12.87h1.48a4,4,0,0,1,1.49.23,2,2,0,0,1,.88.68,2.58,2.58,0,0,1,.41,1.1,11.67,11.67,0,0,1,.1,1.56c0,.56,0,1.09-.06,1.57Zm-.51-9a2.58,2.58,0,0,1-2.26.84H37.15V3.42h1.38a2.86,2.86,0,0,1,2.33.79,3.77,3.77,0,0,1,.65,2.38,4.46,4.46,0,0,1-.58,2.46Z"/>
    <polygon class="e10c222c-8185-4388-8ffb-3a0ca950d1eb" points="51.21 0.25 47.84 0.25 47.84 23.76 57.88 23.76 57.88 20.39 51.21 20.39 51.21 0.25"/>
    <path class="e10c222c-8185-4388-8ffb-3a0ca950d1eb" d="M69.36,1.49A5.6,5.6,0,0,0,67.54.41a5.9,5.9,0,0,0-4.06,0,5.38,5.38,0,0,0-1.81,1.08,5.15,5.15,0,0,0-1.31,1.79,6,6,0,0,0-.49,2.51V18.21a6,6,0,0,0,.49,2.53,5.24,5.24,0,0,0,1.31,1.78,5.66,5.66,0,0,0,1.81,1.08,5.9,5.9,0,0,0,4.06,0,5.6,5.6,0,0,0,1.82-1.08,5.24,5.24,0,0,0,1.31-1.78,6.1,6.1,0,0,0,.49-2.53V5.79a6,6,0,0,0-.49-2.51A5.28,5.28,0,0,0,69.36,1.49ZM67.79,18.21a2.24,2.24,0,0,1-.67,1.8,2.52,2.52,0,0,1-3.21,0,2.23,2.23,0,0,1-.68-1.8V5.79A2.26,2.26,0,0,1,63.91,4a2.52,2.52,0,0,1,3.21,0,2.25,2.25,0,0,1,.67,1.8Z"/>
    <path class="e10c222c-8185-4388-8ffb-3a0ca950d1eb" d="M83.43,1.49A5.43,5.43,0,0,0,81.61.41a5.9,5.9,0,0,0-4.06,0,5.52,5.52,0,0,0-1.82,1.08,5.26,5.26,0,0,0-1.3,1.79,6.22,6.22,0,0,0-.5,2.51V18.21a6,6,0,0,0,.5,2.53,5.24,5.24,0,0,0,1.31,1.78,5.6,5.6,0,0,0,1.82,1.08,5.9,5.9,0,0,0,4.06,0,5.6,5.6,0,0,0,1.82-1.08,5.22,5.22,0,0,0,1.3-1.78,6,6,0,0,0,.5-2.53V5.79a5.9,5.9,0,0,0-.5-2.51A5.15,5.15,0,0,0,83.43,1.49ZM81.86,18.21a2.24,2.24,0,0,1-.68,1.8A2.51,2.51,0,0,1,78,20a2.23,2.23,0,0,1-.68-1.8V5.79A2.26,2.26,0,0,1,78,4a2.51,2.51,0,0,1,3.2,0,2.26,2.26,0,0,1,.68,1.8Z"/>
    <polygon class="e10c222c-8185-4388-8ffb-3a0ca950d1eb" points="95.83 12.7 95.76 12.7 91.44 0.25 88.2 0.25 88.2 23.76 91.57 23.76 91.57 9.46 91.64 9.46 94.94 19.57 96.62 19.57 99.96 9.46 100.03 9.46 100.03 23.76 103.39 23.76 103.39 0.25 100.12 0.25 95.83 12.7"/>
    <polyline class="e10c222c-8185-4388-8ffb-3a0ca950d1eb" points="124.99 15.55 124.93 15.55 122.19 0.25 119.61 0.25 116.97 15.19 116.9 15.19 115.22 0.25 111.65 0.25 115.15 23.78 118.32 23.78 120.87 8.51 120.93 8.51 123.51 23.78 126.68 23.78 130.18 0.25 126.61 0.25 124.99 15.55"/>
    <path class="e10c222c-8185-4388-8ffb-3a0ca950d1eb" d="M141.19,1.49A5.66,5.66,0,0,0,139.38.41a5.93,5.93,0,0,0-4.07,0,5.55,5.55,0,0,0-1.81,1.08,5.15,5.15,0,0,0-1.31,1.79,6,6,0,0,0-.49,2.51V18.21a6.1,6.1,0,0,0,.49,2.53,5.09,5.09,0,0,0,1.3,1.78,5.55,5.55,0,0,0,1.81,1.08,5.93,5.93,0,0,0,4.07,0,5.66,5.66,0,0,0,1.81-1.08,5.24,5.24,0,0,0,1.31-1.78,6.1,6.1,0,0,0,.49-2.53V5.79a6,6,0,0,0-.49-2.51A5.22,5.22,0,0,0,141.19,1.49Zm-1.57,16.72A2.24,2.24,0,0,1,139,20a2.52,2.52,0,0,1-3.21,0,2.23,2.23,0,0,1-.67-1.8V5.79a2.25,2.25,0,0,1,.67-1.8A2.52,2.52,0,0,1,139,4a2.25,2.25,0,0,1,.67,1.8Z"/>
    <path class="e10c222c-8185-4388-8ffb-3a0ca950d1eb" d="M156.68,10.67a8.7,8.7,0,0,0,.65-3.52q0-6.9-6-6.9H146V23.76h3.37v-10h2l3.13,10h3.57L154.42,13A5,5,0,0,0,156.68,10.67Zm-2.82-2a3.07,3.07,0,0,1-.38,1.14,1.86,1.86,0,0,1-.81.71,3.44,3.44,0,0,1-1.42.25h-1.92V3.42h1.75a4,4,0,0,1,1.49.23,1.84,1.84,0,0,1,.87.71,2.81,2.81,0,0,1,.42,1.15,11.82,11.82,0,0,1,.1,1.57A11.72,11.72,0,0,1,153.86,8.65Z"/>
    <polygon class="e10c222c-8185-4388-8ffb-3a0ca950d1eb" points="171.76 0.25 168.39 0.25 163.47 10.98 163.4 10.98 163.4 0.25 160.03 0.25 160.03 23.76 163.4 23.76 163.4 16.72 165.22 13.32 169.05 23.76 172.62 23.76 167.17 9.66 171.76 0.25"/>
    <path class="e10c222c-8185-4388-8ffb-3a0ca950d1eb" d="M185,7V5.37a4.94,4.94,0,0,0-.4-1.93,5.38,5.38,0,0,0-1.13-1.7A5.75,5.75,0,0,0,181.68.52a5.46,5.46,0,0,0-2.29-.47,5.88,5.88,0,0,0-2.55.51A5.26,5.26,0,0,0,175,1.93,5.92,5.92,0,0,0,174,4a8.2,8.2,0,0,0-.36,2.51,8.07,8.07,0,0,0,.74,3.68,5.35,5.35,0,0,0,2.91,2.36l2.42,1a7.9,7.9,0,0,1,1,.5,1.62,1.62,0,0,1,.6.59,2.35,2.35,0,0,1,.27,1c.05.5.07,1,.07,1.52s0,1-.07,1.45a3.07,3.07,0,0,1-.31,1.11,1.68,1.68,0,0,1-.73.69,2.94,2.94,0,0,1-1.34.25,2.16,2.16,0,0,1-1.84-.74,2.79,2.79,0,0,1-.53-1.67V17.12h-3.37v1.26a5.57,5.57,0,0,0,1.65,4,5.63,5.63,0,0,0,1.82,1.17,6.12,6.12,0,0,0,2.28.43,6.45,6.45,0,0,0,2.74-.54,4.68,4.68,0,0,0,1.8-1.44,5.8,5.8,0,0,0,1-2.18A11.62,11.62,0,0,0,185,17a17.58,17.58,0,0,0-.13-2.29,5.78,5.78,0,0,0-.51-1.78,4.16,4.16,0,0,0-1.08-1.35,6.29,6.29,0,0,0-1.81-1l-2.58-1a5.13,5.13,0,0,1-1-.54,1.88,1.88,0,0,1-.59-.6,2.11,2.11,0,0,1-.24-.82A9.24,9.24,0,0,1,177,6.45a6.09,6.09,0,0,1,.1-1.13,2.69,2.69,0,0,1,.34-1,1.9,1.9,0,0,1,.7-.68,2.23,2.23,0,0,1,1.14-.27,2,2,0,0,1,1.83.84,3.63,3.63,0,0,1,.54,2V7Z"/>
    <rect class="e10c222c-8185-4388-8ffb-3a0ca950d1eb" x="13.08" y="0.18" width="10.92" height="2.88"/>
    <rect class="e10c222c-8185-4388-8ffb-3a0ca950d1eb" x="13.08" y="4.25" width="10.92" height="2.88"/>
    <rect class="e10c222c-8185-4388-8ffb-3a0ca950d1eb" x="13.08" y="8.23" width="10.92" height="2.88"/>
    <path class="e10c222c-8185-4388-8ffb-3a0ca950d1eb" d="M8.68,19.63a2.25,2.25,0,1,0,2.25,2.25h0A2.25,2.25,0,0,0,8.68,19.63Z"/>
    <path class="e10c222c-8185-4388-8ffb-3a0ca950d1eb" d="M2.25,19.63a2.25,2.25,0,1,0,2.24,2.25h0A2.24,2.24,0,0,0,2.25,19.63Z"/>
    <path class="e10c222c-8185-4388-8ffb-3a0ca950d1eb" d="M8.68,13.11a2.25,2.25,0,1,0,2.25,2.25h0A2.25,2.25,0,0,0,8.68,13.11Z"/>
    <path class="e10c222c-8185-4388-8ffb-3a0ca950d1eb" d="M2.25,13.11a2.25,2.25,0,1,0,2.24,2.25h0a2.24,2.24,0,0,0-2.24-2.25Z"/>
    <path class="e10c222c-8185-4388-8ffb-3a0ca950d1eb" d="M18.7,12.68a5.61,5.61,0,1,0,5.6,5.61h0A5.61,5.61,0,0,0,18.7,12.68Zm0,8.33-.31,0,.31-2.71-2.58.91a2.73,2.73,0,1,1,3.48,1.68,2.8,2.8,0,0,1-.91.15Z"/>
    <path class="e10c222c-8185-4388-8ffb-3a0ca950d1eb" d="M5.61,0a4.49,4.49,0,0,0-4.5,4.5h0c0,2.48,4.5,7.33,4.5,7.33S10.11,7,10.11,4.5A4.5,4.5,0,0,0,5.61,0Z"/>
  </g>
</svg>
